<svg width="178" height="20" viewBox="0 0 178 20" fill="none" xmlns="http://www.w3.org/2000/svg">
<path fill-rule="evenodd" clip-rule="evenodd" d="M146.019 19.4543H149.01V1.2H146.019V19.4543ZM163.011 15.5753L164.659 17.4261C164.017 18.1867 163.197 18.7867 162.2 19.2262C161.22 19.6487 160.121 19.86 158.904 19.86C157.484 19.86 156.225 19.5727 155.126 18.998C154.028 18.4233 153.166 17.6289 152.54 16.6148C151.932 15.6006 151.628 14.4344 151.628 13.116C151.628 11.7977 151.923 10.6314 152.515 9.61728C153.107 8.60315 153.918 7.80874 154.949 7.23407C155.98 6.6594 157.138 6.37206 158.422 6.37206C159.673 6.37206 160.789 6.6594 161.769 7.23407C162.749 7.79184 163.51 8.56934 164.051 9.56657C164.608 10.5469 164.887 11.6962 164.887 13.0146V13.1667V14.0287H154.721C154.807 14.549 154.968 15.0223 155.202 15.4485C155.574 16.1077 156.09 16.6148 156.749 16.9697C157.425 17.3078 158.194 17.4768 159.056 17.4768C160.628 17.4768 161.946 16.843 163.011 15.5753ZM161.49 10.7075C161.694 11.1146 161.829 11.571 161.896 12.0765H154.718C154.794 11.5898 154.93 11.1504 155.126 10.7582C155.447 10.1159 155.887 9.61728 156.445 9.26233C157.019 8.90739 157.679 8.72991 158.422 8.72991C159.115 8.72991 159.724 8.90739 160.248 9.26233C160.789 9.60037 161.203 10.0821 161.49 10.7075ZM175.166 6.54953V9.28768H174.506C173.729 9.28768 173.036 9.4567 172.427 9.79475C171.836 10.1159 171.371 10.6314 171.033 11.3413C170.695 12.0343 170.526 12.947 170.526 14.0794V19.4543H167.534V6.77771H170.501V9.30818C170.66 8.91138 170.854 8.5665 171.084 8.27355C171.574 7.64817 172.14 7.20871 172.782 6.95518C173.441 6.68475 174.092 6.54953 174.734 6.54953H175.166ZM131.537 17.5275L133.236 15.6767C133.811 16.2683 134.495 16.7331 135.29 17.0711C136.084 17.4092 136.912 17.5782 137.774 17.5782C138.619 17.5782 139.295 17.4176 139.802 17.0965C140.31 16.7753 140.563 16.3697 140.563 15.8795C140.563 15.4063 140.335 15.0513 139.879 14.8147C139.439 14.5612 138.636 14.3499 137.47 14.1809C135.611 13.9273 134.259 13.5048 133.413 12.9132C132.568 12.3216 132.146 11.5103 132.146 10.4793C132.146 9.65108 132.382 8.93274 132.856 8.32426C133.329 7.69888 133.971 7.21717 134.783 6.87912C135.611 6.54108 136.549 6.37206 137.597 6.37206C138.831 6.37206 139.921 6.57488 140.867 6.98054C141.814 7.38619 142.634 7.92706 143.327 8.60315L141.628 10.4793C141.104 9.92152 140.504 9.48206 139.828 9.16092C139.152 8.82287 138.416 8.65385 137.622 8.65385C136.845 8.65385 136.219 8.80597 135.746 9.11021C135.273 9.39755 135.036 9.77785 135.036 10.2511C135.036 10.6399 135.256 10.9356 135.695 11.1385C136.152 11.3413 136.929 11.5188 138.028 11.6709C139.887 11.9413 141.256 12.3892 142.135 13.0146C143.031 13.6231 143.479 14.502 143.479 15.6514C143.479 16.4965 143.225 17.2402 142.718 17.8824C142.228 18.5078 141.543 18.998 140.664 19.3529C139.802 19.691 138.797 19.86 137.647 19.86C136.397 19.86 135.247 19.6572 134.199 19.2515C133.168 18.829 132.281 18.2543 131.537 17.5275ZM126.812 19.4543H129.551V11.5948C129.551 10.4962 129.289 9.55812 128.765 8.78062C128.258 8.00312 127.548 7.41154 126.635 7.00589C125.722 6.58334 124.657 6.37206 123.44 6.37206C122.325 6.37206 121.294 6.56643 120.347 6.95518C119.418 7.34393 118.606 7.87635 117.913 8.55244L119.561 10.4032C120.052 9.87926 120.609 9.46516 121.235 9.16092C121.877 8.85668 122.578 8.70456 123.339 8.70456C124.37 8.70456 125.19 8.96654 125.798 9.49051C126.385 9.99527 126.688 10.6883 126.71 11.5695H123.517C122.317 11.5695 121.26 11.7385 120.347 12.0765C119.452 12.3977 118.75 12.8709 118.243 13.4963C117.736 14.1217 117.482 14.8739 117.482 15.7528C117.482 16.5472 117.685 17.2571 118.091 17.8824C118.497 18.4909 119.071 18.9726 119.815 19.3276C120.559 19.6825 121.412 19.86 122.376 19.86C123.457 19.86 124.412 19.6403 125.241 19.2008C125.867 18.8628 126.391 18.432 126.812 17.9085V19.4543ZM126.711 13.5724H123.77C122.807 13.5724 122.021 13.7499 121.412 14.1048C120.804 14.4428 120.5 14.9499 120.5 15.626C120.5 16.2345 120.728 16.7162 121.184 17.0711C121.657 17.4261 122.266 17.6036 123.009 17.6036C123.736 17.6036 124.387 17.4599 124.962 17.1726C125.553 16.8683 126.027 16.4542 126.381 15.9302C126.511 15.7422 126.621 15.547 126.711 15.3447V13.5724ZM101.386 19.4543V1.32676H108.713C109.913 1.32676 110.953 1.52958 111.832 1.93524C112.728 2.32399 113.412 2.87331 113.885 3.5832C114.376 4.29309 114.621 5.1213 114.621 6.06782C114.621 6.96363 114.376 7.75804 113.885 8.45103C113.478 9.03272 112.915 9.50806 112.195 9.87705C112.252 9.89962 112.308 9.92289 112.364 9.94687C113.328 10.3356 114.071 10.9018 114.595 11.6455C115.136 12.3723 115.407 13.2428 115.407 14.2569C115.407 15.288 115.136 16.2007 114.595 16.9951C114.071 17.7726 113.328 18.3811 112.364 18.8205C111.418 19.2431 110.311 19.4543 109.043 19.4543H101.386ZM104.429 16.8937H109.043C110.057 16.8937 110.852 16.6486 111.426 16.1584C112.018 15.6683 112.314 14.9837 112.314 14.1048C112.314 13.2597 112.018 12.6005 111.426 12.1272C110.852 11.654 110.057 11.4174 109.043 11.4174H104.429V16.8937ZM104.429 8.88203H108.587C109.499 8.88203 110.218 8.6623 110.742 8.22285C111.283 7.76649 111.553 7.14111 111.553 6.3467C111.553 5.58611 111.283 4.98608 110.742 4.54662C110.218 4.10717 109.499 3.88744 108.587 3.88744H104.429V8.88203ZM87.9643 19.4543H91.0828V16.9951H88.9278C88.4714 16.9951 88.1418 16.8937 87.939 16.6908C87.7362 16.4711 87.6347 16.1415 87.6347 15.7021V9.18627H90.9307V6.77771H87.6347V3.32966H84.6684V6.77771H82.3359V9.18627H84.6684V16.1584C84.6684 17.2402 84.9389 18.0599 85.4797 18.6177C86.0375 19.1755 86.8657 19.4543 87.9643 19.4543ZM80.8484 6.54953V9.28768H80.1892C79.4117 9.28768 78.7187 9.4567 78.1103 9.79475C77.5187 10.1159 77.0539 10.6314 76.7158 11.3413C76.3778 12.0343 76.2088 12.947 76.2088 14.0794V19.4543H73.2171V6.77771H76.1834V9.30816C76.3426 8.91137 76.5369 8.5665 76.7665 8.27355C77.2567 7.64817 77.8229 7.20871 78.4652 6.95518C79.1244 6.68475 79.7751 6.54953 80.4174 6.54953H80.8484ZM67.5542 19.4543H70.2923V11.5948C70.2923 10.4962 70.0304 9.55812 69.5064 8.78062C68.9993 8.00312 68.2894 7.41154 67.3767 7.00589C66.464 6.58334 65.3992 6.37206 64.1822 6.37206C63.0667 6.37206 62.0356 6.56643 61.0891 6.95518C60.1595 7.34393 59.3482 7.87635 58.6552 8.55244L60.3032 10.4032C60.7933 9.87926 61.3511 9.46516 61.9765 9.16092C62.6188 8.85668 63.3202 8.70456 64.0808 8.70456C65.1118 8.70456 65.9316 8.96654 66.5401 9.49051C67.1262 9.99527 67.4301 10.6883 67.4515 11.5695H64.2583C63.0582 11.5695 62.0018 11.7385 61.0891 12.0765C60.1933 12.3977 59.4919 12.8709 58.9848 13.4963C58.4777 14.1217 58.2242 14.8739 58.2242 15.7528C58.2242 16.5472 58.427 17.2571 58.8327 17.8824C59.2383 18.4909 59.813 18.9726 60.5567 19.3276C61.3004 19.6825 62.1539 19.86 63.1174 19.86C64.1991 19.86 65.1541 19.6403 65.9823 19.2008C66.6083 18.8628 67.1322 18.432 67.5542 17.9085V19.4543ZM67.4528 13.5724H64.5118C63.5484 13.5724 62.7624 13.7499 62.1539 14.1048C61.5455 14.4428 61.2412 14.9499 61.2412 15.626C61.2412 16.2345 61.4694 16.7162 61.9258 17.0711C62.399 17.4261 63.0075 17.6036 63.7512 17.6036C64.478 17.6036 65.1287 17.4599 65.7034 17.1726C66.295 16.8683 66.7682 16.4542 67.1232 15.9302C67.2525 15.7422 67.3623 15.547 67.4528 15.3447V13.5724ZM55.8739 19.4543H52.9075V12.1272C52.9075 11.0455 52.654 10.2342 52.1469 9.69334C51.6568 9.13556 50.9976 8.85668 50.1694 8.85668C49.5609 8.85668 48.9862 9.01725 48.4454 9.33839C47.9214 9.64263 47.4988 10.1328 47.1777 10.8089C46.8565 11.4681 46.696 12.3385 46.696 13.4203V19.4543H43.7043V6.77771H46.6706V9.09249C46.8242 8.69976 47.0101 8.35918 47.2284 8.07073C47.7186 7.44535 48.2932 7.00589 48.9524 6.75236C49.6116 6.49883 50.2792 6.37206 50.9553 6.37206C52.4765 6.37206 53.6766 6.83687 54.5555 7.76649C55.4344 8.69611 55.8739 10.0483 55.8739 11.823V19.4543ZM37.8045 19.4543H40.7708V11.823C40.7708 10.0483 40.3314 8.69611 39.4525 7.76649C38.5736 6.83687 37.3735 6.37206 35.8523 6.37206C35.1762 6.37206 34.5086 6.49883 33.8494 6.75236C33.1902 7.00589 32.6155 7.44535 32.1254 8.07073C31.9071 8.35918 31.7212 8.69977 31.5676 9.09249V6.77771H28.6013V19.4543H31.593V13.4203C31.593 12.3385 31.7535 11.4681 32.0747 10.8089C32.3958 10.1328 32.8184 9.64263 33.3423 9.33839C33.8832 9.01725 34.4579 8.85668 35.0664 8.85668C35.8946 8.85668 36.5537 9.13556 37.0439 9.69334C37.551 10.2342 37.8045 11.0455 37.8045 12.1272V19.4543ZM24.0783 15.5753L25.7263 17.4261C25.084 18.1867 24.2642 18.7867 23.267 19.2262C22.2867 19.6487 21.188 19.86 19.9711 19.86C18.5513 19.86 17.2921 19.5727 16.1934 18.998C15.0948 18.4233 14.2328 17.6289 13.6074 16.6148C12.9989 15.6006 12.6947 14.4344 12.6947 13.116C12.6947 11.7977 12.9905 10.6314 13.582 9.61728C14.1736 8.60315 14.9849 7.80874 16.016 7.23407C17.047 6.6594 18.2048 6.37206 19.4894 6.37206C20.7401 6.37206 21.8557 6.6594 22.836 7.23407C23.8163 7.79184 24.5769 8.56934 25.1178 9.56657C25.6756 10.5469 25.9544 11.6962 25.9544 13.0146V13.1667V14.0287H15.7879C15.8745 14.549 16.0351 15.0223 16.2695 15.4485C16.6413 16.1077 17.1569 16.6148 17.816 16.9697C18.4921 17.3078 19.2612 17.4768 20.1232 17.4768C21.6951 17.4768 23.0135 16.843 24.0783 15.5753ZM22.5571 10.7075C22.7607 11.1146 22.8962 11.571 22.9635 12.0765H15.7848C15.8611 11.5898 15.9973 11.1504 16.1934 10.7582C16.5146 10.1159 16.954 9.61728 17.5118 9.26233C18.0865 8.90739 18.7457 8.72991 19.4894 8.72991C20.1824 8.72991 20.7908 8.90739 21.3148 9.26233C21.8557 9.60037 22.2698 10.0821 22.5571 10.7075ZM0 19.4543H11.7893V16.8176H3.04239V1.32676H0V19.4543Z" fill="#1D1D1F"/>
</svg>
